<?xml version="1.0" standalone="no"?>
<!DOCTYPE svg PUBLIC "-//W3C//DTD SVG 20010904//EN"
 "http://www.w3.org/TR/2001/REC-SVG-20010904/DTD/svg10.dtd">
<svg version="1.0" xmlns="http://www.w3.org/2000/svg"
 width="1024.000000pt" height="1024.000000pt" viewBox="0 0 1024.000000 1024.000000"
 preserveAspectRatio="xMidYMid meet">

<g transform="translate(0.000000,1024.000000) scale(0.100000,-0.100000)"
fill="#000000" stroke="none">
<path d="M5077 7027 c-55 -56 -102 -119 -101 -133 1 -7 -3 -12 -10 -11 -6 1
-10 -9 -9 -23 1 -14 0 -18 -3 -7 -3 9 -10 17 -14 17 -6 0 -5 -11 1 -26 5 -15
7 -29 4 -32 -3 -3 -5 0 -5 6 0 7 -5 12 -11 12 -6 0 -8 -7 -5 -17 4 -10 4 -15
1 -11 -3 3 -18 -6 -34 -21 -21 -20 -25 -30 -18 -45 6 -13 6 -16 -2 -12 -7 5
-11 -2 -11 -16 -1 -25 -32 -68 -49 -68 -6 0 -11 -4 -11 -10 0 -5 -7 -10 -16
-10 -8 0 -13 -4 -10 -8 2 -4 -11 -23 -31 -42 -20 -19 -40 -47 -45 -62 -8 -22
-17 -28 -41 -29 -19 -1 -24 -3 -14 -6 17 -4 17 -6 3 -21 -14 -16 24 -17 547
-22 767 -7 1054 -6 1062 2 4 4 1 13 -6 20 -30 28 -183 123 -324 202 -45 25
-298 182 -411 256 l-121 78 -90 3 c-85 4 -92 6 -127 37 -20 17 -44 32 -52 32
-9 0 -30 -15 -47 -33z"/>
<path d="M4825 6990 c-93 -3 -164 -7 -157 -8 13 -2 -22 -49 -100 -133 -18 -20
-61 -69 -94 -110 -34 -41 -70 -83 -80 -95 -55 -62 -134 -154 -171 -198 -23
-28 -50 -60 -60 -71 -10 -12 -38 -46 -63 -75 -96 -118 -153 -179 -161 -174 -5
3 -9 -48 -9 -112 0 -65 2 -115 4 -113 3 2 192 190 420 418 276 275 418 411
427 406 8 -5 10 -4 5 4 -8 13 60 82 77 78 6 -1 11 3 12 9 0 18 53 74 67 72 7
-2 12 2 11 8 -1 6 16 28 38 49 43 43 48 56 22 53 -10 -1 -94 -5 -188 -8z"/>
<path d="M4590 6440 c-8 -5 -12 -12 -9 -15 4 -3 12 1 19 10 14 17 11 19 -10 5z"/>
<path d="M4505 6099 c-4 -5 -11 -6 -17 -3 -7 4 -8 2 -4 -5 12 -19 -37 -85 -60
-81 -3 1 -15 -13 -25 -30 -11 -17 -27 -34 -37 -37 -9 -4 -19 -10 -22 -14 -5
-7 -78 -41 -92 -43 -4 -1 -17 -9 -29 -20 -12 -10 -27 -19 -33 -20 -6 -1 -17
-5 -23 -9 -7 -5 -13 -5 -13 0 0 4 -4 2 -9 -6 -5 -7 -27 -14 -49 -15 -29 -1
-38 -5 -34 -15 4 -10 1 -12 -7 -7 -9 6 -9 3 1 -13 7 -11 19 -24 28 -28 8 -5
357 -10 775 -13 722 -5 762 -6 798 -24 84 -42 123 -167 79 -253 -26 -50 -72
-89 -120 -103 -23 -6 -333 -11 -832 -12 -556 -2 -801 -6 -814 -14 -17 -10 -17
-12 8 -18 16 -4 24 -11 20 -18 -4 -6 -3 -8 4 -4 11 7 271 -123 442 -221 58
-33 126 -72 153 -87 124 -69 144 -80 167 -96 61 -41 179 -98 218 -105 44 -7
54 2 27 25 -8 7 -15 18 -15 24 0 6 13 -3 29 -21 22 -23 32 -28 41 -20 8 9 10
8 4 -6 -9 -24 32 -67 63 -67 13 0 34 13 50 30 l26 30 168 0 167 0 88 98 c49
53 97 106 107 117 10 11 53 63 95 115 84 104 172 211 206 250 12 14 51 61 86
105 36 44 93 113 127 154 l63 74 0 91 c0 104 -17 152 -71 203 -64 61 -27 58
-854 58 l-760 0 -57 32 c-33 18 -60 28 -63 22z m176 -946 c13 -16 12 -17 -3
-4 -10 7 -18 15 -18 17 0 8 8 3 21 -13z m207 -193 c8 0 10 -5 6 -12 -5 -8 -2
-9 10 -5 9 4 15 3 12 -2 -7 -11 19 -33 28 -24 4 4 4 -1 0 -10 -3 -10 -3 -17 2
-16 5 1 16 1 24 0 12 -1 12 -3 2 -10 -10 -6 -5 -10 16 -14 16 -3 32 -13 35
-21 4 -10 1 -13 -9 -9 -7 3 -14 10 -14 17 0 7 -4 6 -9 -2 -6 -10 -45 23 -144
125 -164 167 -181 187 -61 71 49 -49 95 -88 102 -88z"/>
<path d="M5242 4286 c-122 -40 -185 -136 -161 -248 20 -90 76 -130 238 -167
138 -33 161 -48 161 -105 0 -43 -71 -86 -140 -86 -56 0 -101 21 -122 56 -20
34 -21 34 -89 34 -65 0 -69 -1 -69 -23 0 -38 43 -110 79 -135 82 -54 250 -68
344 -28 58 25 113 81 131 133 19 55 20 75 5 128 -22 78 -76 109 -268 155 -100
24 -121 39 -121 90 0 105 189 125 237 26 l17 -36 69 0 70 0 -6 37 c-9 54 -54
112 -115 146 -44 24 -66 30 -135 33 -53 3 -97 -1 -125 -10z"/>
<path d="M7312 3938 l3 -363 69 0 69 0 -2 85 c-1 71 2 89 18 108 11 12 21 22
24 22 3 0 40 -49 84 -110 l78 -109 78 -1 c55 0 77 4 77 13 0 6 -45 72 -100
146 -55 73 -100 138 -100 144 0 5 39 55 87 111 47 55 93 109 101 119 14 16 10
17 -69 17 l-84 -1 -90 -109 -90 -110 -3 200 -2 200 -75 0 -75 0 2 -362z"/>
<path d="M2377 4276 c-15 -15 -16 -53 -14 -359 l2 -342 235 0 235 0 3 63 3 62
-166 0 -165 0 0 90 0 90 155 0 155 0 0 55 0 55 -155 0 -155 0 0 85 0 85 165 0
165 0 0 60 c0 33 -1 60 -2 61 -2 0 -102 3 -224 6 -196 5 -222 3 -237 -11z"/>
<path d="M4738 4183 l-3 -58 -36 -3 c-40 -3 -49 -17 -49 -79 0 -32 2 -33 39
-33 l39 0 4 -173 c3 -146 6 -178 21 -201 27 -41 90 -66 170 -66 l68 0 -3 58
-3 57 -40 3 c-61 5 -65 16 -65 179 l0 143 55 0 55 0 0 55 0 55 -55 0 -55 0 0
60 0 60 -70 0 -69 0 -3 -57z"/>
<path d="M3652 4116 c-97 -32 -157 -116 -168 -237 -13 -136 34 -238 131 -288
42 -22 63 -26 135 -26 92 0 142 18 186 67 19 20 54 80 54 91 0 2 -27 7 -60 10
-56 5 -62 3 -89 -23 -73 -73 -195 -35 -216 67 l-6 33 188 2 188 3 -4 59 c-6
111 -49 189 -124 228 -53 26 -155 33 -215 14z m149 -116 c21 -12 49 -60 49
-85 0 -13 -17 -15 -110 -15 -93 0 -110 2 -110 15 0 24 28 73 47 84 23 14 99
14 124 1z"/>
<path d="M4333 4119 c-18 -5 -49 -25 -68 -45 l-35 -35 0 41 0 40 -70 0 -70 0
0 -275 0 -275 70 0 70 0 0 183 c0 201 3 213 62 243 37 19 88 12 114 -17 17
-19 20 -43 24 -213 l5 -191 73 -3 72 -3 0 204 c0 219 -6 253 -49 301 -47 52
-119 68 -198 45z"/>
<path d="M5964 4111 c-23 -10 -53 -32 -68 -47 l-26 -29 0 43 0 42 -75 0 -75 0
0 -370 0 -370 75 0 75 0 0 132 0 132 28 -26 c106 -99 270 -58 333 84 33 75 33
219 -1 296 -49 112 -162 160 -266 113z m72 -120 c42 -26 64 -76 64 -151 0
-121 -74 -187 -163 -145 -48 22 -67 66 -67 153 0 55 4 76 23 103 40 59 89 73
143 40z"/>
<path d="M6483 4116 c-60 -19 -98 -50 -122 -99 -31 -64 -29 -67 38 -67 54 0
63 3 89 31 42 45 110 52 146 16 18 -18 26 -37 26 -62 l0 -35 -67 0 c-79 0
-171 -20 -208 -44 -66 -43 -87 -150 -42 -217 49 -75 174 -96 261 -45 25 15 47
32 47 39 1 7 4 -4 8 -23 l6 -35 70 0 70 0 0 205 c-1 230 -7 258 -66 303 -62
46 -169 60 -256 33z m177 -342 c0 -28 -8 -44 -34 -70 -29 -29 -41 -34 -80 -34
-55 0 -86 25 -86 69 0 47 43 67 153 70 l47 1 0 -36z"/>
<path d="M7132 4113 c-18 -10 -41 -31 -52 -48 l-20 -30 0 27 c0 52 -7 58 -75
58 l-62 0 -7 -92 c-9 -139 -7 -446 4 -453 5 -3 38 -3 74 1 l64 7 4 178 3 179
28 27 c24 24 35 28 88 28 l60 0 -3 65 -3 65 -35 3 c-20 1 -49 -5 -68 -15z"/>
<path d="M2921 4103 c0 -10 40 -133 87 -273 l87 -255 85 0 84 0 87 245 c47
135 89 257 93 273 l6 27 -74 0 -75 0 -9 -32 c-5 -18 -31 -111 -57 -206 -27
-95 -52 -169 -56 -165 -4 4 -21 60 -39 123 -17 63 -42 152 -56 198 l-25 82
-70 0 c-59 0 -69 -2 -68 -17z"/>
</g>
</svg>
