<svg version="1.1" id="Layer_1" xmlns="http://www.w3.org/2000/svg" xmlns:xlink="http://www.w3.org/1999/xlink" x="0px" y="0px"
	 width="100%" viewBox="0 0 1024 1024" enable-background="new 0 0 1024 1024" xml:space="preserve">
<path fill="#F6F0E6" opacity="1.000000" stroke="none" 
	d="
M496.000000,1025.000000 
	C330.666656,1025.000000 165.833328,1025.000000 1.000000,1025.000000 
	C1.000000,683.666687 1.000000,342.333344 1.000000,1.000000 
	C342.333344,1.000000 683.666687,1.000000 1025.000000,1.000000 
	C1025.000000,342.333344 1025.000000,683.666687 1025.000000,1025.000000 
	C848.833313,1025.000000 672.666687,1025.000000 496.000000,1025.000000 
M517.179382,320.733002 
	C517.179382,320.733002 517.203003,320.724640 516.934387,320.070679 
	C515.571411,319.762970 514.208496,319.455261 512.133423,319.033325 
	C509.281738,321.099457 506.430023,323.165619 502.802277,325.174255 
	C492.930939,325.346619 483.059570,325.518982 472.329895,325.389984 
	C471.731110,325.461884 471.132294,325.533813 469.943237,325.183258 
	C449.346771,325.135162 428.748932,324.929962 408.154388,325.106232 
	C398.080688,325.192413 392.964661,330.800537 392.969147,340.777344 
	C392.978363,361.212585 392.984375,381.647949 393.060394,402.082977 
	C393.068909,404.373352 393.520477,406.662079 393.456543,409.828583 
	C393.580200,412.295288 393.703857,414.761963 393.557678,418.041199 
	C393.624878,419.461761 393.692078,420.882355 393.565277,422.471100 
	C393.565277,422.471100 393.757385,422.641388 393.527008,423.577423 
	C393.587982,424.533722 393.648956,425.490051 393.415436,427.137512 
	C393.520264,429.121857 393.625092,431.106171 394.042633,434.149750 
	C394.212311,434.476471 394.381958,434.803162 394.732452,435.819855 
	C399.472046,440.595123 404.211639,445.370392 409.463409,450.773712 
	C410.783875,450.907135 412.103760,451.150635 413.424927,451.157776 
	C445.567871,451.331909 477.710938,451.487122 509.854126,451.608734 
	C510.984711,451.613007 512.116760,451.239502 514.145325,451.184235 
	C524.420410,451.156464 534.695557,451.128723 545.705688,451.449005 
	C550.020325,451.541901 554.339600,451.539825 558.648682,451.747467 
	C567.710571,452.184174 574.108643,458.041290 575.686646,466.989716 
	C577.038696,474.657257 573.736450,480.516968 568.298279,485.917511 
	C568.001038,486.065552 567.816528,486.301697 567.711182,486.670227 
	C567.711182,486.670227 567.656433,486.679413 566.945496,486.842377 
	C562.459961,487.833282 557.980896,489.641785 553.487732,489.677612 
	C530.534607,489.860687 507.577606,489.481720 484.622284,489.514587 
	C472.660553,489.531708 460.699402,489.992615 447.844849,490.154510 
	C432.724487,490.227417 417.603638,490.255890 402.484436,490.429108 
	C400.579681,490.450897 398.683624,491.233612 396.814453,491.697876 
	C396.814453,491.697876 396.807648,491.742371 396.216339,491.810028 
	C395.598206,492.515137 394.980103,493.220245 393.756561,494.553192 
	C393.520691,496.171417 393.085785,497.789062 393.081238,499.407928 
	C393.051758,509.877350 393.076752,520.347351 393.159882,530.816589 
	C393.258575,543.248718 397.506897,547.354492 410.160095,547.348999 
	C436.251312,547.337769 462.342499,547.324768 488.433685,547.280273 
	C490.238190,547.277222 492.042267,547.007812 494.789734,547.053101 
	C496.376312,547.029907 497.962921,547.006775 499.470032,547.105652 
	C499.470032,547.105652 499.457062,546.982544 500.253235,547.011414 
	C500.508972,546.939941 500.764740,546.868408 501.786255,546.933472 
	C502.306244,546.909607 502.826263,546.885742 504.004974,547.002136 
	C505.371643,548.361877 506.678223,549.789551 508.119568,551.064880 
	C510.108948,552.825134 512.093689,555.137268 515.432739,552.146484 
	C515.602417,552.079224 515.772095,552.012024 516.644348,551.978821 
	C518.822205,550.343689 521.000000,548.708618 524.076599,547.174927 
	C531.741577,547.094360 539.406555,547.013855 547.965454,547.148926 
	C552.334778,547.061646 556.704102,546.974365 561.799744,547.202942 
	C580.940979,547.195007 600.083557,547.318909 619.222839,547.121826 
	C628.366394,547.027649 632.723267,542.199280 632.796814,532.911804 
	C632.849548,526.253479 632.852600,519.594360 632.824097,512.935791 
	C632.751404,495.966797 632.648621,478.997955 632.786194,461.125366 
	C632.720886,457.719666 632.655518,454.313934 632.773743,450.099213 
	C632.707764,448.725739 632.641724,447.352264 632.785156,445.252441 
	C632.672791,444.519409 632.560486,443.786377 632.583008,442.350952 
	C632.320618,440.961792 632.058228,439.572632 631.794617,437.433960 
	C627.695129,425.306580 620.840576,420.308655 608.084839,420.289459 
	C578.190491,420.244476 548.296204,420.234436 518.401855,420.235718 
	C516.587891,420.235779 514.773926,420.458527 512.228271,420.354553 
	C510.770416,420.526215 509.309357,420.868439 507.855225,420.841217 
	C499.779724,420.690033 491.652405,419.777496 483.645538,420.415192 
	C474.408813,421.150879 465.462158,421.815094 457.070648,416.866272 
	C457.070648,416.866272 457.159058,416.884857 457.018616,416.349792 
	C456.720612,416.145264 456.422638,415.940735 455.829010,415.136902 
	C449.791138,408.571014 447.511292,401.120453 451.389862,392.735504 
	C455.309662,384.261475 462.546631,381.763275 471.481049,381.950378 
	C484.924194,382.231812 498.378540,381.977295 512.528076,382.116089 
	C512.996521,382.072388 513.464966,382.028656 514.777222,382.146698 
	C536.292114,382.312775 557.807007,382.478851 580.182251,382.872894 
	C594.110046,382.838959 608.037903,382.805023 622.764160,382.943726 
	C623.300171,382.862091 623.836243,382.780457 624.517395,382.813995 
	C624.517395,382.813995 624.642029,382.676849 625.675964,382.754944 
	C626.655518,382.452484 627.635132,382.150024 628.822571,382.099518 
	C629.102783,381.826813 629.382935,381.554108 630.001160,381.177185 
	C630.001160,381.177185 630.146423,380.854675 630.837891,380.774414 
	C631.494995,379.206299 632.692261,377.648895 632.723572,376.068329 
	C632.970581,363.613220 633.245239,351.148651 632.998291,338.697205 
	C632.838257,330.627380 627.295288,325.537323 619.210327,325.456573 
	C602.263306,325.287231 585.314270,325.266663 568.366089,325.270264 
	C560.905396,325.271851 553.444641,325.481537 545.091003,325.320892 
	C540.696960,325.386139 536.302917,325.451355 531.026245,325.304535 
	C528.892090,325.306580 526.757874,325.308624 524.564392,325.197327 
	C524.564392,325.197327 524.487427,325.299438 523.708557,325.185822 
	C523.185059,325.218079 522.661621,325.250336 521.524231,324.979706 
	C520.604492,323.996552 519.684814,323.013397 518.592834,321.501526 
	C518.123535,321.252625 517.654297,321.003723 517.179382,320.733002 
M559.948730,658.361389 
	C568.038574,644.515259 563.464600,632.617615 548.216797,628.020569 
	C545.355652,627.157898 542.383118,626.671326 539.482971,625.929016 
	C535.781250,624.981567 531.939575,624.334839 528.447815,622.868774 
	C522.665894,620.441101 521.979553,613.447754 526.812805,609.467224 
	C532.566528,604.728638 546.119202,606.633972 548.385803,614.193054 
	C548.770020,615.474304 551.016907,616.821472 552.542236,617.009155 
	C555.962158,617.430176 559.469421,617.140991 563.188904,617.140991 
	C563.078918,610.767761 560.495239,605.913025 556.181763,601.964111 
	C545.786316,592.447266 524.892578,592.666931 514.647888,602.305054 
	C504.468384,611.881836 507.248779,628.564026 520.057800,634.133789 
	C523.085449,635.450256 526.354248,636.240906 529.551514,637.131897 
	C534.351501,638.469543 539.330261,639.299927 543.969116,641.046753 
	C549.509827,643.133057 550.676697,649.045776 546.815430,653.151672 
	C541.095276,659.234253 526.428406,657.559570 522.093323,650.410583 
	C521.515442,649.457581 520.332947,648.305359 519.371643,648.249023 
	C515.280273,648.009338 511.166840,648.147156 506.911346,648.147156 
	C507.077026,654.532349 509.243500,659.404419 513.786743,663.065735 
	C523.756104,671.099670 549.362854,672.521301 559.948730,658.361389 
M587.894287,683.263916 
	C587.894287,675.908081 587.894287,668.552185 587.894287,660.212708 
	C598.935364,674.101135 620.722107,670.140442 624.894653,651.553162 
	C626.514832,644.335632 626.095276,636.355042 625.075317,628.932251 
	C623.966736,620.864258 618.851440,615.044678 610.543457,612.866760 
	C602.126648,610.660339 595.129456,613.060181 589.503967,619.649170 
	C589.252502,619.943726 588.761108,620.033447 588.120850,620.345581 
	C587.958496,617.846680 587.815674,615.649658 587.677063,613.516479 
	C582.631104,613.516479 578.054749,613.516479 573.303223,613.516479 
	C573.303223,638.083984 573.303223,662.321716 573.303223,686.993652 
	C577.552612,686.993652 581.528748,687.155640 585.471924,686.867371 
	C586.339417,686.803894 587.090027,685.141663 587.894287,683.263916 
M266.502380,608.903381 
	C272.585785,608.903381 278.669220,608.903381 284.684692,608.903381 
	C284.684692,604.447754 284.684692,600.690491 284.684692,596.885254 
	C268.875336,596.885254 253.336441,596.885254 237.724792,596.885254 
	C237.724792,620.658875 237.724792,644.032166 237.724792,667.426392 
	C253.534012,667.426392 268.937561,667.426392 284.474396,667.426392 
	C284.474396,663.201904 284.474396,659.309937 284.474396,655.009399 
	C273.565887,655.009399 262.979034,655.009399 252.438263,655.009399 
	C252.438263,648.995422 252.438263,643.399963 252.438263,637.264160 
	C262.621155,637.264160 272.529968,637.264160 282.460327,637.264160 
	C282.460327,633.159119 282.460327,629.605774 282.460327,625.544434 
	C272.211578,625.544434 262.313782,625.544434 252.345795,625.544434 
	C252.345795,619.762756 252.345795,614.504822 252.345795,608.902344 
	C256.878937,608.902344 261.190796,608.902344 266.502380,608.903381 
M763.977478,615.270569 
	C758.570190,621.681824 753.162903,628.093079 746.843689,635.585693 
	C746.843689,621.179382 746.843689,608.172974 746.843689,595.166870 
	C741.755127,595.166870 737.198425,595.166870 732.433838,595.166870 
	C732.433838,619.331848 732.433838,643.112976 732.433838,667.203796 
	C737.099426,667.203796 741.637268,667.203796 745.821960,667.203796 
	C748.417480,660.067566 742.375610,651.523376 750.582947,645.684814 
	C755.332275,652.273376 759.838623,658.654541 764.519714,664.904846 
	C765.413818,666.098816 766.947632,667.470825 768.272156,667.565918 
	C772.833374,667.893677 777.432556,667.692017 783.304688,667.692017 
	C775.582520,657.161438 768.553284,647.575867 761.319031,637.710632 
	C768.107300,629.696472 774.892822,621.685608 782.311768,612.926880 
	C777.718567,612.926880 774.219177,612.716614 770.761230,613.004578 
	C768.636414,613.181458 766.575073,614.120422 763.977478,615.270569 
M634.335083,660.035095 
	C636.716919,664.746460 640.868469,666.989014 645.775391,668.017090 
	C653.791565,669.696655 660.811340,667.637390 666.850464,661.458740 
	C667.159607,663.776611 667.388550,665.492859 667.601990,667.093262 
	C672.497803,667.093262 677.033325,667.093262 681.226868,667.093262 
	C681.226868,653.985718 681.517761,641.340210 681.115051,628.716797 
	C680.882935,621.440063 676.782166,616.252930 669.758240,613.809875 
	C661.351257,610.885681 653.012268,611.351990 645.009277,615.171082 
	C639.064392,618.007996 636.092407,623.093994 634.826843,629.597961 
	C637.528198,629.597961 639.679504,629.633667 641.829163,629.589905 
	C645.384277,629.517639 648.721924,629.968628 651.110413,625.766052 
	C652.995361,622.449463 659.971680,622.155212 663.570374,624.304993 
	C667.551331,626.682983 667.479370,630.418213 666.865051,634.268677 
	C660.534302,634.881775 654.381348,635.110962 648.363953,636.136108 
	C635.512634,638.325623 630.158691,647.250000 634.335083,660.035095 
M366.798645,613.120178 
	C353.528809,618.012573 347.070953,630.252136 349.312286,646.261780 
	C351.250549,660.106445 359.530731,667.804260 373.622467,668.862000 
	C387.037170,669.868958 396.042847,664.312073 399.652130,652.459351 
	C397.988617,652.277710 396.395813,652.136780 394.812592,651.924438 
	C390.765045,651.381348 387.236176,650.777832 384.005341,655.052246 
	C381.189423,658.777771 373.407562,658.685303 369.053467,656.053955 
	C364.625854,653.378235 363.137970,649.243286 363.619843,643.613770 
	C376.043182,643.613770 388.281036,643.613770 400.722473,643.613770 
	C400.509827,641.008667 400.354126,639.026062 400.185211,637.044678 
	C398.549896,617.861816 386.687347,609.091614 366.798645,613.120178 
M423.978760,644.537109 
	C424.001373,641.039001 423.853546,637.529541 424.084808,634.045288 
	C424.473511,628.188782 428.844727,624.267700 434.659119,624.280029 
	C440.310913,624.292053 443.878265,627.480286 444.131256,633.640930 
	C444.472748,641.956543 444.296234,650.293701 444.333862,658.621582 
	C444.347015,661.534790 444.335968,664.448120 444.335968,667.262451 
	C449.677490,667.262451 454.232666,667.262451 458.998962,667.262451 
	C458.998962,656.700562 459.005737,646.545837 458.993988,636.391113 
	C458.991302,634.059204 459.027405,631.720581 458.871399,629.396729 
	C457.980499,616.125244 447.133423,608.695862 434.591400,613.228088 
	C430.758698,614.613037 427.529724,617.668640 423.687012,620.179504 
	C423.687012,618.002869 423.687012,615.804077 423.687012,613.394409 
	C418.932953,613.394409 414.649048,613.394409 410.079437,613.394409 
	C410.079437,631.460693 410.079437,649.480408 410.079437,667.368042 
	C414.910248,667.368042 419.335724,667.368042 423.981720,667.368042 
	C423.981720,659.835938 423.981720,652.681213 423.978760,644.537109 
M341.250305,613.157410 
	C337.949585,613.157410 334.648865,613.157410 331.076843,613.157410 
	C327.251770,626.763916 323.499268,640.112244 319.746765,653.460510 
	C319.384003,653.486877 319.021240,653.513245 318.658447,653.539551 
	C314.804443,640.094727 310.950409,626.649902 307.098145,613.211182 
	C302.130829,613.211182 297.532166,613.211182 292.513123,613.211182 
	C293.232117,615.723694 293.782776,617.955750 294.507629,620.129761 
	C298.501434,632.107544 302.518860,644.077454 306.564880,656.037659 
	C310.582428,667.913818 310.603790,667.726440 323.051697,667.883179 
	C326.661926,667.928589 327.904266,666.493713 328.944092,663.452148 
	C333.402649,650.410461 338.094818,637.448792 342.637115,624.435364 
	C343.881073,620.871521 344.900269,617.229126 346.103271,613.363647 
	C344.449585,613.275513 343.300903,613.214294 341.250305,613.157410 
M471.794159,613.065613 
	C466.446747,613.397583 464.886353,616.528137 466.571198,624.157776 
	C469.061188,624.157776 471.642761,624.157776 474.696381,624.157776 
	C474.696381,634.887146 474.582733,645.193665 474.744720,655.495972 
	C474.824829,660.592407 477.207520,664.872559 482.257843,666.119934 
	C487.889679,667.510925 493.795898,667.791016 499.715973,668.572266 
	C499.715973,663.722961 499.715973,660.299683 499.715973,656.658142 
	C497.807373,656.562439 496.174500,656.458496 494.540009,656.403320 
	C491.159943,656.289124 489.162415,654.582581 489.126465,651.190735 
	C489.031555,642.240967 489.094360,633.289551 489.094360,623.997375 
	C492.785400,623.997375 496.209991,623.997375 499.712891,623.997375 
	C499.712891,620.194885 499.712891,616.739319 499.712891,612.826294 
	C496.108398,612.826294 492.686768,612.826294 488.840149,612.826294 
	C488.840149,608.608154 488.840149,604.846924 488.840149,601.142456 
	C483.949982,601.142456 479.496643,601.142456 474.633972,601.142456 
	C474.633972,604.152832 474.815735,606.968689 474.546539,609.740784 
	C474.435394,610.885559 473.356598,611.936401 471.794159,613.065613 
M692.473938,630.502747 
	C692.473938,642.732971 692.473938,654.963135 692.473938,667.217773 
	C697.622131,667.217773 702.205750,667.217773 706.568665,667.217773 
	C706.877319,666.784851 707.056885,666.650574 707.057617,666.515198 
	C707.103821,658.358093 707.136963,650.200989 707.167908,642.043823 
	C707.225647,626.838379 709.028259,625.076111 724.158691,625.432068 
	C724.313171,625.435669 724.469910,625.346497 724.911072,625.216431 
	C724.911072,621.221619 724.911072,617.138977 724.911072,612.804138 
	C717.184387,610.966919 711.400940,613.599854 706.991333,621.335632 
	C706.625732,617.862000 706.391663,615.638428 706.150208,613.344421 
	C701.631042,613.344421 697.382690,613.344421 692.480042,613.344421 
	C692.480042,618.895264 692.480042,624.199768 692.473938,630.502747 
z"/>
<path fill="#F90DB0" opacity="1.000000" stroke="none" 
	d="
M523.177856,547.073486 
	C521.000000,548.708618 518.822205,550.343689 516.124207,551.585449 
	C515.397156,550.227051 515.032288,549.266235 515.007019,548.296448 
	C514.625793,533.692017 514.289612,519.086487 513.941650,504.481201 
	C513.882263,501.989624 514.052979,499.465027 513.707703,497.013367 
	C512.907532,491.331757 513.066467,490.968811 518.680542,490.951141 
	C531.323120,490.911407 543.966736,491.011566 556.608215,490.884094 
	C560.711975,490.842712 564.946167,490.623627 567.656433,486.679413 
	C567.656433,486.679413 567.711182,486.670227 567.982544,486.642120 
	C568.417297,486.341370 568.580688,486.068695 568.744019,485.796051 
	C573.736450,480.516968 577.038696,474.657257 575.686646,466.989716 
	C574.108643,458.041290 567.710571,452.184174 558.648682,451.747467 
	C554.339600,451.539825 550.020325,451.541901 545.054321,450.971375 
	C537.492676,450.189392 530.582397,449.885010 523.672119,449.580597 
	C523.643066,448.991760 523.613953,448.402924 523.584839,447.814087 
	C538.728333,445.559418 553.815430,442.756439 569.029846,441.190521 
	C587.541626,439.285156 606.157410,438.366730 624.741760,437.247742 
	C625.822449,437.182678 627.025146,439.144714 627.946411,440.410339 
	C624.489258,443.953949 621.280029,447.273682 618.020813,450.543610 
	C591.874084,476.776337 565.676941,502.958954 539.596985,529.257874 
	C533.914124,534.988342 528.640137,541.124268 523.177856,547.073486 
z"/>
<path fill="#F85F5C" opacity="1.000000" stroke="none" 
	d="
M408.951233,450.145691 
	C404.211639,445.370392 399.472046,440.595123 394.799255,435.132935 
	C422.495331,406.770721 450.137054,379.107849 477.746399,351.412720 
	C486.401855,342.730377 494.970154,333.961212 503.578339,325.231750 
	C506.430023,323.165619 509.281738,321.099457 512.352051,319.444031 
	C512.686523,322.565308 512.802307,325.275940 512.937988,328.405182 
	C512.945251,330.220306 512.932617,331.616760 512.688232,333.201508 
	C512.584473,334.264099 512.712402,335.138458 512.867554,336.376953 
	C512.877747,337.470490 512.860779,338.199890 512.500854,339.019836 
	C511.436157,340.352661 510.314514,341.517395 510.056183,342.849548 
	C508.103149,352.919586 504.291412,362.167877 498.326599,370.520844 
	C496.290344,373.372375 494.253937,376.223816 491.630371,379.897583 
	C495.178436,380.343170 497.892639,380.744232 500.619904,381.011841 
	C504.350739,381.377899 508.091583,381.642548 511.828125,381.950653 
	C498.378540,381.977295 484.924194,382.231812 471.481049,381.950378 
	C462.546631,381.763275 455.309662,384.261475 451.389862,392.735504 
	C447.511292,401.120453 449.791138,408.571014 456.060577,415.697083 
	C456.581116,416.466492 456.870087,416.675659 457.159058,416.884857 
	C457.159058,416.884857 457.070648,416.866272 457.206787,417.209839 
	C456.908966,420.174683 457.259338,423.369781 455.858917,425.283905 
	C453.707184,428.224884 450.683044,430.926849 447.444641,432.596863 
	C438.532410,437.192749 429.335846,441.241882 420.211304,445.418945 
	C416.511932,447.112457 412.707733,448.576965 408.951233,450.145691 
z"/>
<path fill="#0DC2F0" opacity="1.000000" stroke="none" 
	d="
M393.766541,408.951538 
	C393.520477,406.662079 393.068909,404.373352 393.060394,402.082977 
	C392.984375,381.647949 392.978363,361.212585 392.969147,340.777344 
	C392.964661,330.800537 398.080688,325.192413 408.154388,325.106232 
	C428.748932,324.929962 449.346771,325.135162 469.940186,325.514160 
	C468.309204,326.341278 466.079437,326.322083 465.145447,327.412659 
	C454.710571,339.596680 444.488678,351.962830 434.183258,364.257996 
	C423.972473,376.440216 413.843903,388.694580 403.428497,400.699707 
	C400.683807,403.863281 397.012421,406.222809 393.766541,408.951538 
z"/>
<path fill="#0DC2F0" opacity="1.000000" stroke="none" 
	d="
M632.557861,462.029022 
	C632.648621,478.997955 632.751404,495.966797 632.824097,512.935791 
	C632.852600,519.594360 632.849548,526.253479 632.796814,532.911804 
	C632.723267,542.199280 628.366394,547.027649 619.222839,547.121826 
	C600.083557,547.318909 580.940979,547.195007 561.433350,546.688599 
	C561.307861,545.399475 561.340759,544.451477 561.820312,543.875427 
	C572.303711,531.283813 582.833496,518.730835 593.360962,506.176025 
	C603.353027,494.259705 613.267334,482.276306 623.406372,470.486145 
	C626.096863,467.357544 629.488220,464.831635 632.557861,462.029022 
z"/>
<path fill="#0DC2F0" opacity="1.000000" stroke="none" 
	d="
M493.846527,546.862183 
	C492.042267,547.007812 490.238190,547.277222 488.433685,547.280273 
	C462.342499,547.324768 436.251312,547.337769 410.160095,547.348999 
	C397.506897,547.354492 393.258575,543.248718 393.159882,530.816589 
	C393.076752,520.347351 393.051758,509.877350 393.081238,499.407928 
	C393.085785,497.789062 393.520691,496.171417 394.386353,494.258240 
	C395.670197,493.920624 396.324249,493.877930 397.170837,494.131348 
	C400.779846,496.088318 404.270691,497.613037 407.600037,499.433167 
	C423.686188,508.227295 439.737518,517.085266 455.782990,525.953552 
	C462.737305,529.797180 469.624664,533.762207 476.585388,537.593994 
	C482.306152,540.743225 488.090393,543.777161 493.846527,546.862183 
z"/>
<path fill="#0DC2F0" opacity="1.000000" stroke="none" 
	d="
M545.983948,325.596741 
	C553.444641,325.481537 560.905396,325.271851 568.366089,325.270264 
	C585.314270,325.266663 602.263306,325.287231 619.210327,325.456573 
	C627.295288,325.537323 632.838257,330.627380 632.998291,338.697205 
	C633.245239,351.148651 632.970581,363.613220 632.723572,376.068329 
	C632.692261,377.648895 631.494995,379.206299 630.263489,380.569397 
	C620.075989,374.203522 610.508240,367.970428 600.839783,361.897736 
	C583.495178,351.003754 566.071045,340.236084 548.750366,329.304474 
	C547.533081,328.536194 546.892639,326.853973 545.983948,325.596741 
z"/>
<path fill="#760B8B" opacity="1.000000" stroke="none" 
	d="
M628.171082,440.163391 
	C627.025146,439.144714 625.822449,437.182678 624.741760,437.247742 
	C606.157410,438.366730 587.541626,439.285156 569.029846,441.190521 
	C553.815430,442.756439 538.728333,445.559418 523.584839,447.814087 
	C523.613953,448.402924 523.643066,448.991760 523.672119,449.580597 
	C530.582397,449.885010 537.492676,450.189392 544.686768,450.797363 
	C534.695557,451.128723 524.420410,451.156464 513.681763,450.639862 
	C513.132141,440.256226 513.046082,430.416962 512.959961,420.577698 
	C514.773926,420.458527 516.587891,420.235779 518.401855,420.235718 
	C548.296204,420.234436 578.190491,420.244476 608.084839,420.289459 
	C620.840576,420.308655 627.695129,425.306580 631.501099,437.852478 
	C630.195374,438.901794 629.183228,439.532562 628.171082,440.163391 
z"/>
<path fill="#090808" opacity="1.000000" stroke="none" 
	d="
M559.737244,658.657898 
	C549.362854,672.521301 523.756104,671.099670 513.786743,663.065735 
	C509.243500,659.404419 507.077026,654.532349 506.911346,648.147156 
	C511.166840,648.147156 515.280273,648.009338 519.371643,648.249023 
	C520.332947,648.305359 521.515442,649.457581 522.093323,650.410583 
	C526.428406,657.559570 541.095276,659.234253 546.815430,653.151672 
	C550.676697,649.045776 549.509827,643.133057 543.969116,641.046753 
	C539.330261,639.299927 534.351501,638.469543 529.551514,637.131897 
	C526.354248,636.240906 523.085449,635.450256 520.057800,634.133789 
	C507.248779,628.564026 504.468384,611.881836 514.647888,602.305054 
	C524.892578,592.666931 545.786316,592.447266 556.181763,601.964111 
	C560.495239,605.913025 563.078918,610.767761 563.188904,617.140991 
	C559.469421,617.140991 555.962158,617.430176 552.542236,617.009155 
	C551.016907,616.821472 548.770020,615.474304 548.385803,614.193054 
	C546.119202,606.633972 532.566528,604.728638 526.812805,609.467224 
	C521.979553,613.447754 522.665894,620.441101 528.447815,622.868774 
	C531.939575,624.334839 535.781250,624.981567 539.482971,625.929016 
	C542.383118,626.671326 545.355652,627.157898 548.216797,628.020569 
	C563.464600,632.617615 568.038574,644.515259 559.737244,658.657898 
z"/>
<path fill="#F9437A" opacity="1.000000" stroke="none" 
	d="
M512.594116,420.466125 
	C513.046082,430.416962 513.132141,440.256226 513.233154,450.568787 
	C512.116760,451.239502 510.984711,451.613007 509.854126,451.608734 
	C477.710938,451.487122 445.567871,451.331909 413.424927,451.157776 
	C412.103760,451.150635 410.783875,450.907135 409.207336,450.459686 
	C412.707733,448.576965 416.511932,447.112457 420.211304,445.418945 
	C429.335846,441.241882 438.532410,437.192749 447.444641,432.596863 
	C450.683044,430.926849 453.707184,428.224884 455.858917,425.283905 
	C457.259338,423.369781 456.908966,420.174683 457.236908,417.176208 
	C465.462158,421.815094 474.408813,421.150879 483.645538,420.415192 
	C491.652405,419.777496 499.779724,420.690033 507.855225,420.841217 
	C509.309357,420.868439 510.770416,420.526215 512.594116,420.466125 
z"/>
<path fill="#090808" opacity="1.000000" stroke="none" 
	d="
M587.894409,683.739807 
	C587.090027,685.141663 586.339417,686.803894 585.471924,686.867371 
	C581.528748,687.155640 577.552612,686.993652 573.303223,686.993652 
	C573.303223,662.321716 573.303223,638.083984 573.303223,613.516479 
	C578.054749,613.516479 582.631104,613.516479 587.677063,613.516479 
	C587.815674,615.649658 587.958496,617.846680 588.120850,620.345581 
	C588.761108,620.033447 589.252502,619.943726 589.503967,619.649170 
	C595.129456,613.060181 602.126648,610.660339 610.543457,612.866760 
	C618.851440,615.044678 623.966736,620.864258 625.075317,628.932251 
	C626.095276,636.355042 626.514832,644.335632 624.894653,651.553162 
	C620.722107,670.140442 598.935364,674.101135 587.894287,660.212708 
	C587.894287,668.552185 587.894287,675.908081 587.894409,683.739807 
M587.817627,644.162659 
	C587.940430,645.151611 587.964172,646.165161 588.202209,647.125549 
	C589.698364,653.161804 593.849060,656.785950 599.270264,656.855103 
	C604.579834,656.922852 609.451904,653.848755 610.253662,647.927063 
	C611.001038,642.407288 610.326111,636.462036 609.073608,630.979065 
	C608.098877,626.712158 604.171936,624.352600 599.553101,624.266174 
	C594.682678,624.175049 591.002136,626.734253 589.528870,631.089722 
	C588.237427,634.908020 588.294434,639.182495 587.817627,644.162659 
z"/>
<path fill="#090808" opacity="1.000000" stroke="none" 
	d="
M266.002533,608.902832 
	C261.190796,608.902344 256.878937,608.902344 252.345795,608.902344 
	C252.345795,614.504822 252.345795,619.762756 252.345795,625.544434 
	C262.313782,625.544434 272.211578,625.544434 282.460327,625.544434 
	C282.460327,629.605774 282.460327,633.159119 282.460327,637.264160 
	C272.529968,637.264160 262.621155,637.264160 252.438263,637.264160 
	C252.438263,643.399963 252.438263,648.995422 252.438263,655.009399 
	C262.979034,655.009399 273.565887,655.009399 284.474396,655.009399 
	C284.474396,659.309937 284.474396,663.201904 284.474396,667.426392 
	C268.937561,667.426392 253.534012,667.426392 237.724792,667.426392 
	C237.724792,644.032166 237.724792,620.658875 237.724792,596.885254 
	C253.336441,596.885254 268.875336,596.885254 284.684692,596.885254 
	C284.684692,600.690491 284.684692,604.447754 284.684692,608.903381 
	C278.669220,608.903381 272.585785,608.903381 266.002533,608.902832 
z"/>
<path fill="#F90DB0" opacity="1.000000" stroke="none" 
	d="
M512.920044,333.013245 
	C512.932617,331.616760 512.945251,330.220306 513.230774,328.142822 
	C514.844177,325.275055 512.313232,320.962555 517.203003,320.724640 
	C517.203003,320.724640 517.179382,320.733002 517.242310,321.024384 
	C517.791809,321.553925 518.278442,321.792053 518.765076,322.030212 
	C519.684814,323.013397 520.604492,323.996552 521.927856,325.424408 
	C536.791382,340.005127 551.294067,354.097748 565.686584,368.301910 
	C570.379395,372.933319 574.784973,377.855682 579.321899,382.644958 
	C557.807007,382.478851 536.292114,382.312775 514.217285,381.675598 
	C513.438477,379.245056 513.046509,377.287231 513.028931,375.326019 
	C512.920471,363.194183 512.896118,351.061615 512.843811,338.929291 
	C512.860779,338.199890 512.877747,337.470490 513.033264,336.123291 
	C513.087891,334.674713 513.003967,333.843994 512.920044,333.013245 
z"/>
<path fill="#1C5EBB" opacity="1.000000" stroke="none" 
	d="
M503.190308,325.203003 
	C494.970154,333.961212 486.401855,342.730377 477.746399,351.412720 
	C450.137054,379.107849 422.495331,406.770721 394.708862,434.787964 
	C394.381958,434.803162 394.212311,434.476471 393.945038,433.394806 
	C393.801605,430.575348 393.755768,428.510864 393.709930,426.446350 
	C393.648956,425.490051 393.587982,424.533722 393.668701,423.074860 
	C393.810394,422.572296 393.759277,422.302917 393.759277,422.302917 
	C393.692078,420.882355 393.624878,419.461761 393.961670,417.714111 
	C395.886353,419.297821 396.998657,419.219879 398.580078,417.150330 
	C403.208496,411.093384 407.960022,405.118378 412.920715,399.331970 
	C415.921509,395.831787 419.668945,392.965027 422.615051,389.425812 
	C432.346619,377.735291 441.759644,365.779388 451.503693,354.099487 
	C458.291260,345.963379 465.482391,338.164612 472.319672,330.068512 
	C473.159424,329.074127 472.924896,327.172516 473.188232,325.691315 
	C483.059570,325.518982 492.930939,325.346619 503.190308,325.203003 
z"/>
<path fill="#090808" opacity="1.000000" stroke="none" 
	d="
M764.231323,614.993896 
	C766.575073,614.120422 768.636414,613.181458 770.761230,613.004578 
	C774.219177,612.716614 777.718567,612.926880 782.311768,612.926880 
	C774.892822,621.685608 768.107300,629.696472 761.319031,637.710632 
	C768.553284,647.575867 775.582520,657.161438 783.304688,667.692017 
	C777.432556,667.692017 772.833374,667.893677 768.272156,667.565918 
	C766.947632,667.470825 765.413818,666.098816 764.519714,664.904846 
	C759.838623,658.654541 755.332275,652.273376 750.582947,645.684814 
	C742.375610,651.523376 748.417480,660.067566 745.821960,667.203796 
	C741.637268,667.203796 737.099426,667.203796 732.433838,667.203796 
	C732.433838,643.112976 732.433838,619.331848 732.433838,595.166870 
	C737.198425,595.166870 741.755127,595.166870 746.843689,595.166870 
	C746.843689,608.172974 746.843689,621.179382 746.843689,635.585693 
	C753.162903,628.093079 758.570190,621.681824 764.231323,614.993896 
z"/>
<path fill="#1C5EBB" opacity="1.000000" stroke="none" 
	d="
M627.946411,440.410339 
	C629.183228,439.532562 630.195374,438.901794 631.501709,438.227234 
	C632.058228,439.572632 632.320618,440.961792 632.243530,442.768372 
	C632.127930,444.116791 632.351807,445.047791 632.575684,445.978790 
	C632.641724,447.352264 632.707764,448.725739 632.368958,450.580139 
	C622.287598,461.734619 612.460449,472.276672 602.984375,483.125336 
	C596.018372,491.100189 589.588257,499.540466 582.778320,507.655060 
	C576.622864,514.989685 570.405640,522.281311 563.974426,529.373108 
	C558.519043,535.388733 552.719055,541.091858 547.071533,546.933289 
	C539.406555,547.013855 531.741577,547.094360 523.627197,547.124207 
	C528.640137,541.124268 533.914124,534.988342 539.596985,529.257874 
	C565.676941,502.958954 591.874084,476.776337 618.020813,450.543610 
	C621.280029,447.273682 624.489258,443.953949 627.946411,440.410339 
z"/>
<path fill="#090808" opacity="1.000000" stroke="none" 
	d="
M634.183838,659.693604 
	C630.158691,647.250000 635.512634,638.325623 648.363953,636.136108 
	C654.381348,635.110962 660.534302,634.881775 666.865051,634.268677 
	C667.479370,630.418213 667.551331,626.682983 663.570374,624.304993 
	C659.971680,622.155212 652.995361,622.449463 651.110413,625.766052 
	C648.721924,629.968628 645.384277,629.517639 641.829163,629.589905 
	C639.679504,629.633667 637.528198,629.597961 634.826843,629.597961 
	C636.092407,623.093994 639.064392,618.007996 645.009277,615.171082 
	C653.012268,611.351990 661.351257,610.885681 669.758240,613.809875 
	C676.782166,616.252930 680.882935,621.440063 681.115051,628.716797 
	C681.517761,641.340210 681.226868,653.985718 681.226868,667.093262 
	C677.033325,667.093262 672.497803,667.093262 667.601990,667.093262 
	C667.388550,665.492859 667.159607,663.776611 666.850464,661.458740 
	C660.811340,667.637390 653.791565,669.696655 645.775391,668.017090 
	C640.868469,666.989014 636.716919,664.746460 634.183838,659.693604 
M661.082764,656.973083 
	C666.404358,654.194824 667.772461,649.728882 666.784546,643.726440 
	C661.769409,644.194519 656.974915,644.389465 652.276184,645.164734 
	C648.843567,645.731018 646.687927,648.016541 646.861328,651.811157 
	C647.024658,655.385193 649.293884,657.344971 652.505066,657.734497 
	C655.055969,658.044006 657.716553,657.449463 661.082764,656.973083 
z"/>
<path fill="#090808" opacity="1.000000" stroke="none" 
	d="
M367.205261,613.040283 
	C386.687347,609.091614 398.549896,617.861816 400.185211,637.044678 
	C400.354126,639.026062 400.509827,641.008667 400.722473,643.613770 
	C388.281036,643.613770 376.043182,643.613770 363.619843,643.613770 
	C363.137970,649.243286 364.625854,653.378235 369.053467,656.053955 
	C373.407562,658.685303 381.189423,658.777771 384.005341,655.052246 
	C387.236176,650.777832 390.765045,651.381348 394.812592,651.924438 
	C396.395813,652.136780 397.988617,652.277710 399.652130,652.459351 
	C396.042847,664.312073 387.037170,669.868958 373.622467,668.862000 
	C359.530731,667.804260 351.250549,660.106445 349.312286,646.261780 
	C347.070953,630.252136 353.528809,618.012573 367.205261,613.040283 
M379.072998,624.217407 
	C369.543060,622.535095 363.901886,626.565918 364.412598,634.619751 
	C371.520782,634.619751 378.620575,634.619751 385.911987,634.619751 
	C385.969604,629.711853 384.080688,626.386230 379.072998,624.217407 
z"/>
<path fill="#090808" opacity="1.000000" stroke="none" 
	d="
M423.980225,645.031799 
	C423.981720,652.681213 423.981720,659.835938 423.981720,667.368042 
	C419.335724,667.368042 414.910248,667.368042 410.079437,667.368042 
	C410.079437,649.480408 410.079437,631.460693 410.079437,613.394409 
	C414.649048,613.394409 418.932953,613.394409 423.687012,613.394409 
	C423.687012,615.804077 423.687012,618.002869 423.687012,620.179504 
	C427.529724,617.668640 430.758698,614.613037 434.591400,613.228088 
	C447.133423,608.695862 457.980499,616.125244 458.871399,629.396729 
	C459.027405,631.720581 458.991302,634.059204 458.993988,636.391113 
	C459.005737,646.545837 458.998962,656.700562 458.998962,667.262451 
	C454.232666,667.262451 449.677490,667.262451 444.335968,667.262451 
	C444.335968,664.448120 444.347015,661.534790 444.333862,658.621582 
	C444.296234,650.293701 444.472748,641.956543 444.131256,633.640930 
	C443.878265,627.480286 440.310913,624.292053 434.659119,624.280029 
	C428.844727,624.267700 424.473511,628.188782 424.084808,634.045288 
	C423.853546,637.529541 424.001373,641.039001 423.980225,645.031799 
z"/>
<path fill="#F9437A" opacity="1.000000" stroke="none" 
	d="
M567.300964,486.760895 
	C564.946167,490.623627 560.711975,490.842712 556.608215,490.884094 
	C543.966736,491.011566 531.323120,490.911407 518.680542,490.951141 
	C513.066467,490.968811 512.907532,491.331757 513.707703,497.013367 
	C514.052979,499.465027 513.882263,501.989624 513.941650,504.481201 
	C514.289612,519.086487 514.625793,533.692017 515.007019,548.296448 
	C515.032288,549.266235 515.397156,550.227051 515.772888,551.568481 
	C515.772095,552.012024 515.602417,552.079224 514.838379,552.048889 
	C513.893982,551.625549 513.260864,551.320129 513.235779,550.971069 
	C512.775757,544.568176 512.553955,538.142273 511.869904,531.765503 
	C511.698120,530.163940 510.438599,527.892151 509.092163,527.327393 
	C497.814636,522.597473 486.562500,517.941162 477.606110,509.164154 
	C476.503845,508.083984 474.628540,507.076019 473.196838,507.182495 
	C468.840759,507.506378 466.574341,505.523315 464.737396,501.803528 
	C463.270966,498.833984 460.044403,498.305939 457.668335,499.876038 
	C454.479340,496.601440 451.608673,493.427246 448.738007,490.253052 
	C460.699402,489.992615 472.660553,489.531708 484.622284,489.514587 
	C507.577606,489.481720 530.534607,489.860687 553.487732,489.677612 
	C557.980896,489.641785 562.459961,487.833282 567.300964,486.760895 
z"/>
<path fill="#090808" opacity="1.000000" stroke="none" 
	d="
M341.701263,613.155273 
	C343.300903,613.214294 344.449585,613.275513 346.103271,613.363647 
	C344.900269,617.229126 343.881073,620.871521 342.637115,624.435364 
	C338.094818,637.448792 333.402649,650.410461 328.944092,663.452148 
	C327.904266,666.493713 326.661926,667.928589 323.051697,667.883179 
	C310.603790,667.726440 310.582428,667.913818 306.564880,656.037659 
	C302.518860,644.077454 298.501434,632.107544 294.507629,620.129761 
	C293.782776,617.955750 293.232117,615.723694 292.513123,613.211182 
	C297.532166,613.211182 302.130829,613.211182 307.098145,613.211182 
	C310.950409,626.649902 314.804443,640.094727 318.658447,653.539551 
	C319.021240,653.513245 319.384003,653.486877 319.746765,653.460510 
	C323.499268,640.112244 327.251770,626.763916 331.076843,613.157410 
	C334.648865,613.157410 337.949585,613.157410 341.701263,613.155273 
z"/>
<path fill="#1C5EBB" opacity="1.000000" stroke="none" 
	d="
M448.291443,490.203796 
	C451.608673,493.427246 454.479340,496.601440 457.782349,500.187073 
	C459.829559,502.065613 461.444458,503.532684 463.106293,505.247925 
	C463.434784,505.651489 463.716309,505.806854 463.994934,505.985016 
	C463.992035,506.007843 464.037689,506.001862 464.087341,506.249634 
	C464.421417,506.649292 464.705811,506.801178 465.097900,507.273254 
	C471.883148,514.313904 478.614410,520.982056 485.221497,527.771057 
	C490.637695,533.336365 495.906097,539.045410 500.848328,544.787842 
	C499.333801,544.699280 498.034607,544.816650 497.115204,544.281494 
	C486.499146,538.102295 476.001038,531.718994 465.351685,525.598572 
	C451.431244,517.598206 437.623383,509.354156 423.337952,502.054810 
	C414.915619,497.751251 405.662842,495.072968 396.783539,491.663757 
	C398.683624,491.233612 400.579681,490.450897 402.484436,490.429108 
	C417.603638,490.255890 432.724487,490.227417 448.291443,490.203796 
z"/>
<path fill="#090808" opacity="1.000000" stroke="none" 
	d="
M472.256042,613.047791 
	C473.356598,611.936401 474.435394,610.885559 474.546539,609.740784 
	C474.815735,606.968689 474.633972,604.152832 474.633972,601.142456 
	C479.496643,601.142456 483.949982,601.142456 488.840149,601.142456 
	C488.840149,604.846924 488.840149,608.608154 488.840149,612.826294 
	C492.686768,612.826294 496.108398,612.826294 499.712891,612.826294 
	C499.712891,616.739319 499.712891,620.194885 499.712891,623.997375 
	C496.209991,623.997375 492.785400,623.997375 489.094360,623.997375 
	C489.094360,633.289551 489.031555,642.240967 489.126465,651.190735 
	C489.162415,654.582581 491.159943,656.289124 494.540009,656.403320 
	C496.174500,656.458496 497.807373,656.562439 499.715973,656.658142 
	C499.715973,660.299683 499.715973,663.722961 499.715973,668.572266 
	C493.795898,667.791016 487.889679,667.510925 482.257843,666.119934 
	C477.207520,664.872559 474.824829,660.592407 474.744720,655.495972 
	C474.582733,645.193665 474.696381,634.887146 474.696381,624.157776 
	C471.642761,624.157776 469.061188,624.157776 466.571198,624.157776 
	C464.886353,616.528137 466.446747,613.397583 472.256042,613.047791 
z"/>
<path fill="#1C5EBB" opacity="1.000000" stroke="none" 
	d="
M579.752075,382.758911 
	C574.784973,377.855682 570.379395,372.933319 565.686584,368.301910 
	C551.294067,354.097748 536.791382,340.005127 522.234802,325.575867 
	C522.661621,325.250336 523.185059,325.218079 524.067871,325.304565 
	C524.427124,325.423340 524.623718,325.310638 524.623718,325.310638 
	C526.757874,325.308624 528.892090,325.306580 531.508484,325.740662 
	C532.982239,327.431030 533.785645,328.921448 535.003601,329.891388 
	C537.704346,332.042267 540.575439,333.987854 543.444031,335.917664 
	C552.044250,341.703430 560.577759,347.596924 569.322998,353.156311 
	C578.959106,359.282043 588.706848,365.246552 598.584229,370.973785 
	C606.135071,375.351990 612.497559,382.173645 621.965698,382.771088 
	C608.037903,382.805023 594.110046,382.838959 579.752075,382.758911 
z"/>
<path fill="#090808" opacity="1.000000" stroke="none" 
	d="
M692.476990,630.003479 
	C692.480042,624.199768 692.480042,618.895264 692.480042,613.344421 
	C697.382690,613.344421 701.631042,613.344421 706.150208,613.344421 
	C706.391663,615.638428 706.625732,617.862000 706.991333,621.335632 
	C711.400940,613.599854 717.184387,610.966919 724.911072,612.804138 
	C724.911072,617.138977 724.911072,621.221619 724.911072,625.216431 
	C724.469910,625.346497 724.313171,625.435669 724.158691,625.432068 
	C709.028259,625.076111 707.225647,626.838379 707.167908,642.043823 
	C707.136963,650.200989 707.103821,658.358093 707.057617,666.515198 
	C707.056885,666.650574 706.877319,666.784851 706.568665,667.217773 
	C702.205750,667.217773 697.622131,667.217773 692.473938,667.217773 
	C692.473938,654.963135 692.473938,642.732971 692.476990,630.003479 
z"/>
<path fill="#1991D6" opacity="1.000000" stroke="none" 
	d="
M622.364929,382.857422 
	C612.497559,382.173645 606.135071,375.351990 598.584229,370.973785 
	C588.706848,365.246552 578.959106,359.282043 569.322998,353.156311 
	C560.577759,347.596924 552.044250,341.703430 543.444031,335.917664 
	C540.575439,333.987854 537.704346,332.042267 535.003601,329.891388 
	C533.785645,328.921448 532.982239,327.431030 531.949829,325.846680 
	C536.302917,325.451355 540.696960,325.386139 545.537476,325.458801 
	C546.892639,326.853973 547.533081,328.536194 548.750366,329.304474 
	C566.071045,340.236084 583.495178,351.003754 600.839783,361.897736 
	C610.508240,367.970428 620.075989,374.203522 629.917725,380.609497 
	C630.146423,380.854675 630.001160,381.177185 629.720947,381.258514 
	C629.178955,381.534393 628.903625,381.703644 628.614685,381.847595 
	C627.635132,382.150024 626.655518,382.452484 625.148499,382.644287 
	C624.621033,382.533600 624.372253,382.698822 624.372253,382.698822 
	C623.836243,382.780457 623.300171,382.862091 622.364929,382.857422 
z"/>
<path fill="#1991D6" opacity="1.000000" stroke="none" 
	d="
M547.518494,547.041138 
	C552.719055,541.091858 558.519043,535.388733 563.974426,529.373108 
	C570.405640,522.281311 576.622864,514.989685 582.778320,507.655060 
	C589.588257,499.540466 596.018372,491.100189 602.984375,483.125336 
	C612.460449,472.276672 622.287598,461.734619 632.277161,450.984680 
	C632.655518,454.313934 632.720886,457.719666 632.671997,461.577209 
	C629.488220,464.831635 626.096863,467.357544 623.406372,470.486145 
	C613.267334,482.276306 603.353027,494.259705 593.360962,506.176025 
	C582.833496,518.730835 572.303711,531.283813 561.820312,543.875427 
	C561.340759,544.451477 561.307861,545.399475 561.070190,546.530640 
	C556.704102,546.974365 552.334778,547.061646 547.518494,547.041138 
z"/>
<path fill="#1991D6" opacity="1.000000" stroke="none" 
	d="
M472.759064,325.540649 
	C472.924896,327.172516 473.159424,329.074127 472.319672,330.068512 
	C465.482391,338.164612 458.291260,345.963379 451.503693,354.099487 
	C441.759644,365.779388 432.346619,377.735291 422.615051,389.425812 
	C419.668945,392.965027 415.921509,395.831787 412.920715,399.331970 
	C407.960022,405.118378 403.208496,411.093384 398.580078,417.150330 
	C396.998657,419.219879 395.886353,419.297821 394.096558,417.307861 
	C393.703857,414.761963 393.580200,412.295288 393.611542,409.390076 
	C397.012421,406.222809 400.683807,403.863281 403.428497,400.699707 
	C413.843903,388.694580 423.972473,376.440216 434.183258,364.257996 
	C444.488678,351.962830 454.710571,339.596680 465.145447,327.412659 
	C466.079437,326.322083 468.309204,326.341278 470.235352,325.725403 
	C471.132294,325.533813 471.731110,325.461884 472.759064,325.540649 
z"/>
<path fill="#F85F5C" opacity="1.000000" stroke="none" 
	d="
M463.059357,504.999756 
	C461.444458,503.532684 459.829559,502.065613 458.100647,500.287476 
	C460.044403,498.305939 463.270966,498.833984 464.737396,501.803528 
	C466.574341,505.523315 468.840759,507.506378 473.196838,507.182495 
	C474.628540,507.076019 476.503845,508.083984 477.606110,509.164154 
	C486.562500,517.941162 497.814636,522.597473 509.092163,527.327393 
	C510.438599,527.892151 511.698120,530.163940 511.869904,531.765503 
	C512.553955,538.142273 512.775757,544.568176 513.235779,550.971069 
	C513.260864,551.320129 513.893982,551.625549 514.564819,552.056763 
	C512.093689,555.137268 510.108948,552.825134 508.119568,551.064880 
	C506.678223,549.789551 505.371643,548.361877 503.540100,546.638794 
	C502.457489,545.766052 501.839752,545.256714 501.214111,544.730713 
	C501.206207,544.714111 501.240021,544.690735 501.240021,544.690735 
	C495.906097,539.045410 490.637695,533.336365 485.221497,527.771057 
	C478.614410,520.982056 471.883148,514.313904 464.992188,507.067200 
	C464.587952,506.283997 464.340912,506.104309 464.037689,506.001862 
	C464.037689,506.001862 463.992035,506.007843 463.890930,505.778687 
	C463.602783,505.291290 463.359283,505.108032 463.059357,504.999756 
z"/>
<path fill="#1991D6" opacity="1.000000" stroke="none" 
	d="
M396.799011,491.680817 
	C405.662842,495.072968 414.915619,497.751251 423.337952,502.054810 
	C437.623383,509.354156 451.431244,517.598206 465.351685,525.598572 
	C476.001038,531.718994 486.499146,538.102295 497.115204,544.281494 
	C498.034607,544.816650 499.333801,544.699280 500.848328,544.787842 
	C501.240021,544.690735 501.206207,544.714111 501.134583,545.067993 
	C501.048828,545.880188 501.034668,546.338562 501.020538,546.796875 
	C500.764740,546.868408 500.508972,546.939941 499.878601,547.002014 
	C499.503998,546.992615 499.549500,546.983643 499.549500,546.983643 
	C497.962921,547.006775 496.376312,547.029907 494.318115,546.957642 
	C488.090393,543.777161 482.306152,540.743225 476.585388,537.593994 
	C469.624664,533.762207 462.737305,529.797180 455.782990,525.953552 
	C439.737518,517.085266 423.686188,508.227295 407.600037,499.433167 
	C404.270691,497.613037 400.779846,496.088318 397.142883,493.785370 
	C396.884155,492.676300 396.845886,492.209351 396.807617,491.742371 
	C396.807648,491.742371 396.814453,491.697876 396.799011,491.680817 
z"/>
<path fill="#F9437A" opacity="1.000000" stroke="none" 
	d="
M512.500854,339.019836 
	C512.896118,351.061615 512.920471,363.194183 513.028931,375.326019 
	C513.046509,377.287231 513.438477,379.245056 513.795410,381.594696 
	C513.464966,382.028656 512.996521,382.072388 512.178101,382.033386 
	C508.091583,381.642548 504.350739,381.377899 500.619904,381.011841 
	C497.892639,380.744232 495.178436,380.343170 491.630371,379.897583 
	C494.253937,376.223816 496.290344,373.372375 498.326599,370.520844 
	C504.291412,362.167877 508.103149,352.919586 510.056183,342.849548 
	C510.314514,341.517395 511.436157,340.352661 512.500854,339.019836 
z"/>
<path fill="#F9437A" opacity="1.000000" stroke="none" 
	d="
M517.068726,320.397644 
	C512.313232,320.962555 514.844177,325.275055 513.210938,327.724182 
	C512.802307,325.275940 512.686523,322.565308 512.708130,319.501129 
	C514.208496,319.455261 515.571411,319.762970 517.068726,320.397644 
z"/>
<path fill="#0DC2F0" opacity="1.000000" stroke="none" 
	d="
M393.562683,426.791931 
	C393.755768,428.510864 393.801605,430.575348 393.788666,432.865173 
	C393.625092,431.106171 393.520264,429.121857 393.562683,426.791931 
z"/>
<path fill="#1C5EBB" opacity="1.000000" stroke="none" 
	d="
M396.511963,491.776184 
	C396.845886,492.209351 396.884155,492.676300 396.950348,493.489258 
	C396.324249,493.877930 395.670197,493.920624 394.689087,493.944336 
	C394.980103,493.220245 395.598206,492.515137 396.511963,491.776184 
z"/>
<path fill="#1991D6" opacity="1.000000" stroke="none" 
	d="
M632.680420,445.615601 
	C632.351807,445.047791 632.127930,444.116791 632.176086,443.119568 
	C632.560486,443.786377 632.672791,444.519409 632.680420,445.615601 
z"/>
<path fill="#1C5EBB" opacity="1.000000" stroke="none" 
	d="
M501.403381,546.865173 
	C501.034668,546.338562 501.048828,545.880188 501.142487,545.084595 
	C501.839752,545.256714 502.457489,545.766052 503.210754,546.568665 
	C502.826263,546.885742 502.306244,546.909607 501.403381,546.865173 
z"/>
<path fill="#0DC2F0" opacity="1.000000" stroke="none" 
	d="
M628.718628,381.973572 
	C628.903625,381.703644 629.178955,381.534393 629.551941,381.310608 
	C629.382935,381.554108 629.102783,381.826813 628.718628,381.973572 
z"/>
<path fill="#F9437A" opacity="1.000000" stroke="none" 
	d="
M518.678955,321.765869 
	C518.278442,321.792053 517.791809,321.553925 517.245117,321.035309 
	C517.654297,321.003723 518.123535,321.252625 518.678955,321.765869 
z"/>
<path fill="#0DC2F0" opacity="1.000000" stroke="none" 
	d="
M499.509766,547.044678 
	C499.549500,546.983643 499.503998,546.992615 499.480530,546.987549 
	C499.457062,546.982544 499.470032,547.105652 499.509766,547.044678 
z"/>
<path fill="#0DC2F0" opacity="1.000000" stroke="none" 
	d="
M524.594055,325.253967 
	C524.623718,325.310638 524.427124,325.423340 524.457275,325.361389 
	C524.487427,325.299438 524.564392,325.197327 524.594055,325.253967 
z"/>
<path fill="#F9437A" opacity="1.000000" stroke="none" 
	d="
M568.521118,485.856781 
	C568.580688,486.068695 568.417297,486.341370 567.999329,486.619995 
	C567.816528,486.301697 568.001038,486.065552 568.521118,485.856781 
z"/>
<path fill="#0DC2F0" opacity="1.000000" stroke="none" 
	d="
M624.444824,382.756409 
	C624.372253,382.698822 624.621033,382.533600 624.631531,382.605225 
	C624.642029,382.676849 624.517395,382.813995 624.444824,382.756409 
z"/>
<path fill="#F9437A" opacity="1.000000" stroke="none" 
	d="
M457.088837,416.617310 
	C456.870087,416.675659 456.581116,416.466492 456.208405,415.996765 
	C456.422638,415.940735 456.720612,416.145264 457.088837,416.617310 
z"/>
<path fill="#0DC2F0" opacity="1.000000" stroke="none" 
	d="
M393.662292,422.387024 
	C393.759277,422.302917 393.810394,422.572296 393.783875,422.606842 
	C393.757385,422.641388 393.565277,422.471100 393.662292,422.387024 
z"/>
<path fill="#F9437A" opacity="1.000000" stroke="none" 
	d="
M512.688293,333.201508 
	C513.003967,333.843994 513.087891,334.674713 513.006104,335.759125 
	C512.712402,335.138458 512.584473,334.264099 512.688293,333.201508 
z"/>
<path fill="#F6F0E6" opacity="1.000000" stroke="none" 
	d="
M587.786743,643.709045 
	C588.294434,639.182495 588.237427,634.908020 589.528870,631.089722 
	C591.002136,626.734253 594.682678,624.175049 599.553101,624.266174 
	C604.171936,624.352600 608.098877,626.712158 609.073608,630.979065 
	C610.326111,636.462036 611.001038,642.407288 610.253662,647.927063 
	C609.451904,653.848755 604.579834,656.922852 599.270264,656.855103 
	C593.849060,656.785950 589.698364,653.161804 588.202209,647.125549 
	C587.964172,646.165161 587.940430,645.151611 587.786743,643.709045 
z"/>
<path fill="#F6F0E6" opacity="1.000000" stroke="none" 
	d="
M660.705566,657.114746 
	C657.716553,657.449463 655.055969,658.044006 652.505066,657.734497 
	C649.293884,657.344971 647.024658,655.385193 646.861328,651.811157 
	C646.687927,648.016541 648.843567,645.731018 652.276184,645.164734 
	C656.974915,644.389465 661.769409,644.194519 666.784546,643.726440 
	C667.772461,649.728882 666.404358,654.194824 660.705566,657.114746 
z"/>
<path fill="#F6F0E6" opacity="1.000000" stroke="none" 
	d="
M379.421692,624.372559 
	C384.080688,626.386230 385.969604,629.711853 385.911987,634.619751 
	C378.620575,634.619751 371.520782,634.619751 364.412598,634.619751 
	C363.901886,626.565918 369.543060,622.535095 379.421692,624.372559 
z"/>
<path fill="#F9437A" opacity="1.000000" stroke="none" 
	d="
M464.087341,506.249634 
	C464.340912,506.104309 464.587952,506.283997 464.884521,506.747009 
	C464.705811,506.801178 464.421417,506.649292 464.087341,506.249634 
z"/>
<path fill="#F9437A" opacity="1.000000" stroke="none" 
	d="
M463.106293,505.247925 
	C463.359283,505.108032 463.602783,505.291290 463.893829,505.755859 
	C463.716309,505.806854 463.434784,505.651489 463.106293,505.247925 
z"/>
</svg>